<mxfile host="app.diagrams.net" modified="2023-07-11T09:54:06.571Z" agent="Mozilla/5.0 (Windows NT 10.0; Win64; x64) AppleWebKit/537.36 (KHTML, like Gecko) Chrome/114.0.0.0 Safari/537.36" etag="oTvsVRwFDgcO1DeP0Ihr" version="21.6.1" type="github">
  <diagram name="ページ1" id="JMxXwqi38131v6G1R3WI">
    <mxGraphModel dx="472" dy="783" grid="1" gridSize="10" guides="1" tooltips="1" connect="1" arrows="1" fold="1" page="1" pageScale="1" pageWidth="827" pageHeight="1169" math="0" shadow="0">
      <root>
        <mxCell id="0" />
        <mxCell id="1" parent="0" />
        <mxCell id="QdYJXt05bKTK1Rvs316_-2" value="" style="group" parent="1" vertex="1" connectable="0">
          <mxGeometry x="350" y="270" width="100" height="40" as="geometry" />
        </mxCell>
        <mxCell id="QdYJXt05bKTK1Rvs316_-3" value="" style="rounded=1;whiteSpace=wrap;html=1;" parent="QdYJXt05bKTK1Rvs316_-2" vertex="1">
          <mxGeometry width="100" height="40" as="geometry" />
        </mxCell>
        <mxCell id="QdYJXt05bKTK1Rvs316_-4" value="メインページ" style="text;html=1;strokeColor=none;fillColor=none;align=center;verticalAlign=middle;whiteSpace=wrap;rounded=0;fontSize=12;fontStyle=1" parent="QdYJXt05bKTK1Rvs316_-2" vertex="1">
          <mxGeometry y="5" width="100" height="30" as="geometry" />
        </mxCell>
        <mxCell id="QdYJXt05bKTK1Rvs316_-6" value="" style="group" parent="1" vertex="1" connectable="0">
          <mxGeometry x="350" y="350" width="100" height="40" as="geometry" />
        </mxCell>
        <mxCell id="QdYJXt05bKTK1Rvs316_-7" value="" style="rounded=1;whiteSpace=wrap;html=1;" parent="QdYJXt05bKTK1Rvs316_-6" vertex="1">
          <mxGeometry width="100" height="40" as="geometry" />
        </mxCell>
        <mxCell id="QdYJXt05bKTK1Rvs316_-8" value="ドロップダウン&lt;br&gt;メニューを開く" style="text;html=1;strokeColor=none;fillColor=none;align=center;verticalAlign=middle;whiteSpace=wrap;rounded=0;fontSize=12;fontStyle=1" parent="QdYJXt05bKTK1Rvs316_-6" vertex="1">
          <mxGeometry y="5" width="100" height="30" as="geometry" />
        </mxCell>
        <mxCell id="QdYJXt05bKTK1Rvs316_-9" style="edgeStyle=orthogonalEdgeStyle;rounded=0;orthogonalLoop=1;jettySize=auto;html=1;entryX=0.5;entryY=0;entryDx=0;entryDy=0;" parent="1" source="QdYJXt05bKTK1Rvs316_-4" target="QdYJXt05bKTK1Rvs316_-7" edge="1">
          <mxGeometry relative="1" as="geometry" />
        </mxCell>
        <mxCell id="QdYJXt05bKTK1Rvs316_-11" value="" style="group" parent="1" vertex="1" connectable="0">
          <mxGeometry x="230" y="420" width="100" height="40" as="geometry" />
        </mxCell>
        <mxCell id="QdYJXt05bKTK1Rvs316_-12" value="" style="rounded=1;whiteSpace=wrap;html=1;" parent="QdYJXt05bKTK1Rvs316_-11" vertex="1">
          <mxGeometry width="100" height="40" as="geometry" />
        </mxCell>
        <mxCell id="QdYJXt05bKTK1Rvs316_-13" value="投稿一括削除" style="text;html=1;strokeColor=none;fillColor=none;align=center;verticalAlign=middle;whiteSpace=wrap;rounded=0;fontSize=12;fontStyle=1" parent="QdYJXt05bKTK1Rvs316_-11" vertex="1">
          <mxGeometry y="5" width="100" height="30" as="geometry" />
        </mxCell>
        <mxCell id="QdYJXt05bKTK1Rvs316_-16" value="" style="group" parent="1" vertex="1" connectable="0">
          <mxGeometry x="350" y="420" width="100" height="40" as="geometry" />
        </mxCell>
        <mxCell id="QdYJXt05bKTK1Rvs316_-17" value="" style="rounded=1;whiteSpace=wrap;html=1;" parent="QdYJXt05bKTK1Rvs316_-16" vertex="1">
          <mxGeometry width="100" height="40" as="geometry" />
        </mxCell>
        <mxCell id="ZiUI3iZXkfB4AdFEZK2J-5" style="edgeStyle=orthogonalEdgeStyle;rounded=0;orthogonalLoop=1;jettySize=auto;html=1;" parent="QdYJXt05bKTK1Rvs316_-16" source="QdYJXt05bKTK1Rvs316_-18" edge="1">
          <mxGeometry relative="1" as="geometry">
            <mxPoint x="49.999999999999886" y="59.999999999999886" as="targetPoint" />
          </mxGeometry>
        </mxCell>
        <mxCell id="QdYJXt05bKTK1Rvs316_-18" value="設定" style="text;html=1;strokeColor=none;fillColor=none;align=center;verticalAlign=middle;whiteSpace=wrap;rounded=0;fontSize=12;fontStyle=1" parent="QdYJXt05bKTK1Rvs316_-16" vertex="1">
          <mxGeometry y="5" width="100" height="30" as="geometry" />
        </mxCell>
        <mxCell id="QdYJXt05bKTK1Rvs316_-14" style="edgeStyle=orthogonalEdgeStyle;rounded=0;orthogonalLoop=1;jettySize=auto;html=1;entryX=0.5;entryY=0;entryDx=0;entryDy=0;" parent="1" source="QdYJXt05bKTK1Rvs316_-7" target="QdYJXt05bKTK1Rvs316_-17" edge="1">
          <mxGeometry relative="1" as="geometry">
            <mxPoint x="400" y="410" as="targetPoint" />
          </mxGeometry>
        </mxCell>
        <mxCell id="QdYJXt05bKTK1Rvs316_-23" style="edgeStyle=orthogonalEdgeStyle;rounded=0;orthogonalLoop=1;jettySize=auto;html=1;entryX=0.474;entryY=-0.096;entryDx=0;entryDy=0;entryPerimeter=0;" parent="1" source="QdYJXt05bKTK1Rvs316_-8" target="QdYJXt05bKTK1Rvs316_-12" edge="1">
          <mxGeometry relative="1" as="geometry" />
        </mxCell>
        <mxCell id="ZiUI3iZXkfB4AdFEZK2J-2" value="" style="group" parent="1" vertex="1" connectable="0">
          <mxGeometry x="480" y="420" width="100" height="40" as="geometry" />
        </mxCell>
        <mxCell id="ZiUI3iZXkfB4AdFEZK2J-3" value="" style="rounded=1;whiteSpace=wrap;html=1;" parent="ZiUI3iZXkfB4AdFEZK2J-2" vertex="1">
          <mxGeometry width="100" height="40" as="geometry" />
        </mxCell>
        <mxCell id="ZiUI3iZXkfB4AdFEZK2J-4" value="ログアウト" style="text;html=1;strokeColor=none;fillColor=none;align=center;verticalAlign=middle;whiteSpace=wrap;rounded=0;fontSize=12;fontStyle=1" parent="ZiUI3iZXkfB4AdFEZK2J-2" vertex="1">
          <mxGeometry y="5" width="100" height="30" as="geometry" />
        </mxCell>
        <mxCell id="ZiUI3iZXkfB4AdFEZK2J-1" style="edgeStyle=orthogonalEdgeStyle;rounded=0;orthogonalLoop=1;jettySize=auto;html=1;entryX=0.5;entryY=0;entryDx=0;entryDy=0;" parent="1" source="QdYJXt05bKTK1Rvs316_-7" target="ZiUI3iZXkfB4AdFEZK2J-3" edge="1">
          <mxGeometry relative="1" as="geometry">
            <mxPoint x="500" y="420" as="targetPoint" />
          </mxGeometry>
        </mxCell>
        <mxCell id="ZiUI3iZXkfB4AdFEZK2J-6" value="" style="group" parent="1" vertex="1" connectable="0">
          <mxGeometry x="350" y="480" width="100" height="40" as="geometry" />
        </mxCell>
        <mxCell id="ZiUI3iZXkfB4AdFEZK2J-7" value="" style="rounded=1;whiteSpace=wrap;html=1;" parent="ZiUI3iZXkfB4AdFEZK2J-6" vertex="1">
          <mxGeometry width="100" height="40" as="geometry" />
        </mxCell>
        <mxCell id="ZiUI3iZXkfB4AdFEZK2J-9" style="edgeStyle=orthogonalEdgeStyle;rounded=0;orthogonalLoop=1;jettySize=auto;html=1;" parent="ZiUI3iZXkfB4AdFEZK2J-6" source="ZiUI3iZXkfB4AdFEZK2J-8" edge="1">
          <mxGeometry relative="1" as="geometry">
            <mxPoint x="-70" y="50" as="targetPoint" />
          </mxGeometry>
        </mxCell>
        <mxCell id="ZiUI3iZXkfB4AdFEZK2J-13" style="edgeStyle=orthogonalEdgeStyle;rounded=0;orthogonalLoop=1;jettySize=auto;html=1;" parent="ZiUI3iZXkfB4AdFEZK2J-6" source="ZiUI3iZXkfB4AdFEZK2J-8" edge="1">
          <mxGeometry relative="1" as="geometry">
            <mxPoint x="180.0000000000001" y="50" as="targetPoint" />
          </mxGeometry>
        </mxCell>
        <mxCell id="ZiUI3iZXkfB4AdFEZK2J-8" value="設定モーダル" style="text;html=1;strokeColor=none;fillColor=none;align=center;verticalAlign=middle;whiteSpace=wrap;rounded=0;fontSize=12;fontStyle=1" parent="ZiUI3iZXkfB4AdFEZK2J-6" vertex="1">
          <mxGeometry y="5" width="100" height="30" as="geometry" />
        </mxCell>
        <mxCell id="ZiUI3iZXkfB4AdFEZK2J-10" value="" style="group" parent="1" vertex="1" connectable="0">
          <mxGeometry x="230" y="530" width="100" height="40" as="geometry" />
        </mxCell>
        <mxCell id="ZiUI3iZXkfB4AdFEZK2J-11" value="" style="rounded=1;whiteSpace=wrap;html=1;" parent="ZiUI3iZXkfB4AdFEZK2J-10" vertex="1">
          <mxGeometry width="100" height="40" as="geometry" />
        </mxCell>
        <mxCell id="ZiUI3iZXkfB4AdFEZK2J-17" style="edgeStyle=orthogonalEdgeStyle;rounded=0;orthogonalLoop=1;jettySize=auto;html=1;" parent="ZiUI3iZXkfB4AdFEZK2J-10" source="ZiUI3iZXkfB4AdFEZK2J-12" edge="1">
          <mxGeometry relative="1" as="geometry">
            <mxPoint x="50" y="60" as="targetPoint" />
          </mxGeometry>
        </mxCell>
        <mxCell id="ZiUI3iZXkfB4AdFEZK2J-12" value="一般" style="text;html=1;strokeColor=none;fillColor=none;align=center;verticalAlign=middle;whiteSpace=wrap;rounded=0;fontSize=12;fontStyle=1" parent="ZiUI3iZXkfB4AdFEZK2J-10" vertex="1">
          <mxGeometry y="5" width="100" height="30" as="geometry" />
        </mxCell>
        <mxCell id="ZiUI3iZXkfB4AdFEZK2J-14" value="" style="group" parent="1" vertex="1" connectable="0">
          <mxGeometry x="480" y="530" width="100" height="40" as="geometry" />
        </mxCell>
        <mxCell id="ZiUI3iZXkfB4AdFEZK2J-15" value="" style="rounded=1;whiteSpace=wrap;html=1;" parent="ZiUI3iZXkfB4AdFEZK2J-14" vertex="1">
          <mxGeometry width="100" height="40" as="geometry" />
        </mxCell>
        <mxCell id="dkab3oiRA13Ja1yy32M--29" style="edgeStyle=orthogonalEdgeStyle;rounded=0;orthogonalLoop=1;jettySize=auto;html=1;exitX=0.5;exitY=1;exitDx=0;exitDy=0;" edge="1" parent="ZiUI3iZXkfB4AdFEZK2J-14" source="ZiUI3iZXkfB4AdFEZK2J-16">
          <mxGeometry relative="1" as="geometry">
            <mxPoint x="150" y="80" as="targetPoint" />
          </mxGeometry>
        </mxCell>
        <mxCell id="ZiUI3iZXkfB4AdFEZK2J-16" value="データ管理" style="text;html=1;strokeColor=none;fillColor=none;align=center;verticalAlign=middle;whiteSpace=wrap;rounded=0;fontSize=12;fontStyle=1" parent="ZiUI3iZXkfB4AdFEZK2J-14" vertex="1">
          <mxGeometry y="5" width="100" height="30" as="geometry" />
        </mxCell>
        <mxCell id="ZiUI3iZXkfB4AdFEZK2J-18" value="" style="group" parent="1" vertex="1" connectable="0">
          <mxGeometry x="230" y="590" width="100" height="40" as="geometry" />
        </mxCell>
        <mxCell id="ZiUI3iZXkfB4AdFEZK2J-19" value="" style="rounded=1;whiteSpace=wrap;html=1;" parent="ZiUI3iZXkfB4AdFEZK2J-18" vertex="1">
          <mxGeometry width="100" height="40" as="geometry" />
        </mxCell>
        <mxCell id="ZiUI3iZXkfB4AdFEZK2J-20" value="投稿一括削除" style="text;html=1;strokeColor=none;fillColor=none;align=center;verticalAlign=middle;whiteSpace=wrap;rounded=0;fontSize=12;fontStyle=1" parent="ZiUI3iZXkfB4AdFEZK2J-18" vertex="1">
          <mxGeometry y="5" width="100" height="30" as="geometry" />
        </mxCell>
        <mxCell id="ZiUI3iZXkfB4AdFEZK2J-26" style="edgeStyle=orthogonalEdgeStyle;rounded=0;orthogonalLoop=1;jettySize=auto;html=1;exitX=1;exitY=0.5;exitDx=0;exitDy=0;exitPerimeter=0;entryX=1;entryY=0.5;entryDx=0;entryDy=0;" parent="1" source="ZiUI3iZXkfB4AdFEZK2J-21" target="ZiUI3iZXkfB4AdFEZK2J-12" edge="1">
          <mxGeometry relative="1" as="geometry" />
        </mxCell>
        <mxCell id="ZiUI3iZXkfB4AdFEZK2J-28" value="&lt;b&gt;いいえ&lt;/b&gt;" style="edgeLabel;html=1;align=center;verticalAlign=middle;resizable=0;points=[];" parent="ZiUI3iZXkfB4AdFEZK2J-26" vertex="1" connectable="0">
          <mxGeometry x="0.1181" y="1" relative="1" as="geometry">
            <mxPoint as="offset" />
          </mxGeometry>
        </mxCell>
        <mxCell id="ZiUI3iZXkfB4AdFEZK2J-29" style="edgeStyle=orthogonalEdgeStyle;rounded=0;orthogonalLoop=1;jettySize=auto;html=1;entryX=0;entryY=0.5;entryDx=0;entryDy=0;" parent="1" source="ZiUI3iZXkfB4AdFEZK2J-21" target="ZiUI3iZXkfB4AdFEZK2J-12" edge="1">
          <mxGeometry relative="1" as="geometry">
            <mxPoint x="139.99999999999994" y="560" as="targetPoint" />
            <Array as="points">
              <mxPoint x="150" y="710" />
              <mxPoint x="150" y="550" />
            </Array>
          </mxGeometry>
        </mxCell>
        <mxCell id="ZiUI3iZXkfB4AdFEZK2J-30" value="&lt;b&gt;はい&lt;/b&gt;" style="edgeLabel;html=1;align=center;verticalAlign=middle;resizable=0;points=[];" parent="ZiUI3iZXkfB4AdFEZK2J-29" vertex="1" connectable="0">
          <mxGeometry x="-0.8291" y="1" relative="1" as="geometry">
            <mxPoint as="offset" />
          </mxGeometry>
        </mxCell>
        <mxCell id="ZiUI3iZXkfB4AdFEZK2J-21" value="&lt;font face=&quot;Times New Roman&quot;&gt;&lt;b&gt;削除確認モーダル&lt;/b&gt;&lt;/font&gt;" style="strokeWidth=2;html=1;shape=mxgraph.flowchart.decision;whiteSpace=wrap;" parent="1" vertex="1">
          <mxGeometry x="205" y="660" width="150" height="100" as="geometry" />
        </mxCell>
        <mxCell id="ZiUI3iZXkfB4AdFEZK2J-22" style="edgeStyle=orthogonalEdgeStyle;rounded=0;orthogonalLoop=1;jettySize=auto;html=1;entryX=0.5;entryY=0;entryDx=0;entryDy=0;entryPerimeter=0;" parent="1" source="ZiUI3iZXkfB4AdFEZK2J-20" target="ZiUI3iZXkfB4AdFEZK2J-21" edge="1">
          <mxGeometry relative="1" as="geometry" />
        </mxCell>
        <mxCell id="ZiUI3iZXkfB4AdFEZK2J-34" value="データの削除" style="ellipse;whiteSpace=wrap;html=1;aspect=fixed;" parent="1" vertex="1">
          <mxGeometry x="110" y="580" width="80" height="80" as="geometry" />
        </mxCell>
        <mxCell id="dkab3oiRA13Ja1yy32M--1" value="" style="group" vertex="1" connectable="0" parent="1">
          <mxGeometry x="390" y="610" width="100" height="40" as="geometry" />
        </mxCell>
        <mxCell id="dkab3oiRA13Ja1yy32M--2" value="" style="rounded=1;whiteSpace=wrap;html=1;" vertex="1" parent="dkab3oiRA13Ja1yy32M--1">
          <mxGeometry width="100" height="40" as="geometry" />
        </mxCell>
        <mxCell id="dkab3oiRA13Ja1yy32M--3" value="共有リンク一覧" style="text;html=1;strokeColor=none;fillColor=none;align=center;verticalAlign=middle;whiteSpace=wrap;rounded=0;fontSize=12;fontStyle=1" vertex="1" parent="dkab3oiRA13Ja1yy32M--1">
          <mxGeometry y="5" width="100" height="30" as="geometry" />
        </mxCell>
        <mxCell id="dkab3oiRA13Ja1yy32M--4" style="edgeStyle=orthogonalEdgeStyle;rounded=0;orthogonalLoop=1;jettySize=auto;html=1;entryX=0.5;entryY=0;entryDx=0;entryDy=0;" edge="1" parent="1" source="ZiUI3iZXkfB4AdFEZK2J-16" target="dkab3oiRA13Ja1yy32M--2">
          <mxGeometry relative="1" as="geometry" />
        </mxCell>
        <mxCell id="dkab3oiRA13Ja1yy32M--5" value="" style="group" vertex="1" connectable="0" parent="1">
          <mxGeometry x="390" y="670" width="140" height="40" as="geometry" />
        </mxCell>
        <mxCell id="dkab3oiRA13Ja1yy32M--6" value="" style="rounded=1;whiteSpace=wrap;html=1;" vertex="1" parent="dkab3oiRA13Ja1yy32M--5">
          <mxGeometry width="140" height="40" as="geometry" />
        </mxCell>
        <mxCell id="dkab3oiRA13Ja1yy32M--7" value="共有リンク参照モーダル" style="text;html=1;strokeColor=none;fillColor=none;align=center;verticalAlign=middle;whiteSpace=wrap;rounded=0;fontSize=12;fontStyle=1" vertex="1" parent="dkab3oiRA13Ja1yy32M--5">
          <mxGeometry y="5" width="140" height="30" as="geometry" />
        </mxCell>
        <mxCell id="dkab3oiRA13Ja1yy32M--8" style="edgeStyle=orthogonalEdgeStyle;rounded=0;orthogonalLoop=1;jettySize=auto;html=1;entryX=0.5;entryY=0;entryDx=0;entryDy=0;" edge="1" parent="1" source="dkab3oiRA13Ja1yy32M--3" target="dkab3oiRA13Ja1yy32M--7">
          <mxGeometry relative="1" as="geometry" />
        </mxCell>
        <mxCell id="dkab3oiRA13Ja1yy32M--9" value="" style="group" vertex="1" connectable="0" parent="1">
          <mxGeometry x="300" y="770" width="114" height="40" as="geometry" />
        </mxCell>
        <mxCell id="dkab3oiRA13Ja1yy32M--10" value="" style="rounded=1;whiteSpace=wrap;html=1;" vertex="1" parent="dkab3oiRA13Ja1yy32M--9">
          <mxGeometry width="114.00000000000001" height="40" as="geometry" />
        </mxCell>
        <mxCell id="dkab3oiRA13Ja1yy32M--11" value="共有リンクに飛べる" style="text;html=1;strokeColor=none;fillColor=none;align=center;verticalAlign=middle;whiteSpace=wrap;rounded=0;fontSize=12;fontStyle=1" vertex="1" parent="dkab3oiRA13Ja1yy32M--9">
          <mxGeometry y="5" width="114.00000000000001" height="30" as="geometry" />
        </mxCell>
        <mxCell id="dkab3oiRA13Ja1yy32M--14" value="&lt;b&gt;投稿へ飛べる&lt;/b&gt;" style="rounded=1;whiteSpace=wrap;html=1;" vertex="1" parent="1">
          <mxGeometry x="420" y="770" width="100" height="40" as="geometry" />
        </mxCell>
        <mxCell id="dkab3oiRA13Ja1yy32M--15" style="edgeStyle=orthogonalEdgeStyle;rounded=0;orthogonalLoop=1;jettySize=auto;html=1;exitX=0.25;exitY=1;exitDx=0;exitDy=0;entryX=0.5;entryY=0;entryDx=0;entryDy=0;" edge="1" parent="1" source="dkab3oiRA13Ja1yy32M--6" target="dkab3oiRA13Ja1yy32M--14">
          <mxGeometry relative="1" as="geometry" />
        </mxCell>
        <mxCell id="dkab3oiRA13Ja1yy32M--16" value="&lt;b&gt;確認なし&lt;br&gt;リンク削除&lt;/b&gt;" style="rounded=1;whiteSpace=wrap;html=1;" vertex="1" parent="1">
          <mxGeometry x="530" y="770" width="100" height="40" as="geometry" />
        </mxCell>
        <mxCell id="dkab3oiRA13Ja1yy32M--13" style="edgeStyle=orthogonalEdgeStyle;rounded=0;orthogonalLoop=1;jettySize=auto;html=1;entryX=0.75;entryY=0;entryDx=0;entryDy=0;" edge="1" parent="1" source="dkab3oiRA13Ja1yy32M--7" target="dkab3oiRA13Ja1yy32M--10">
          <mxGeometry relative="1" as="geometry">
            <mxPoint x="420" y="730" as="targetPoint" />
          </mxGeometry>
        </mxCell>
        <mxCell id="dkab3oiRA13Ja1yy32M--19" style="edgeStyle=orthogonalEdgeStyle;rounded=0;orthogonalLoop=1;jettySize=auto;html=1;entryX=0.112;entryY=0.05;entryDx=0;entryDy=0;entryPerimeter=0;" edge="1" parent="1" source="dkab3oiRA13Ja1yy32M--7" target="dkab3oiRA13Ja1yy32M--16">
          <mxGeometry relative="1" as="geometry" />
        </mxCell>
        <mxCell id="dkab3oiRA13Ja1yy32M--20" value="" style="group" vertex="1" connectable="0" parent="1">
          <mxGeometry x="570" y="720" width="100" height="40" as="geometry" />
        </mxCell>
        <mxCell id="dkab3oiRA13Ja1yy32M--21" value="" style="rounded=1;whiteSpace=wrap;html=1;" vertex="1" parent="dkab3oiRA13Ja1yy32M--20">
          <mxGeometry width="100" height="40" as="geometry" />
        </mxCell>
        <mxCell id="dkab3oiRA13Ja1yy32M--22" value="確認ありの&lt;br&gt;リンク一括削除" style="text;html=1;strokeColor=none;fillColor=none;align=center;verticalAlign=middle;whiteSpace=wrap;rounded=0;fontSize=12;fontStyle=1" vertex="1" parent="dkab3oiRA13Ja1yy32M--20">
          <mxGeometry y="5" width="100" height="30" as="geometry" />
        </mxCell>
        <mxCell id="dkab3oiRA13Ja1yy32M--25" style="edgeStyle=orthogonalEdgeStyle;rounded=0;orthogonalLoop=1;jettySize=auto;html=1;entryX=0.25;entryY=0;entryDx=0;entryDy=0;" edge="1" parent="1" source="dkab3oiRA13Ja1yy32M--7" target="dkab3oiRA13Ja1yy32M--21">
          <mxGeometry relative="1" as="geometry" />
        </mxCell>
        <mxCell id="dkab3oiRA13Ja1yy32M--26" value="" style="group" vertex="1" connectable="0" parent="1">
          <mxGeometry x="580" y="610" width="100" height="40" as="geometry" />
        </mxCell>
        <mxCell id="dkab3oiRA13Ja1yy32M--27" value="" style="rounded=1;whiteSpace=wrap;html=1;" vertex="1" parent="dkab3oiRA13Ja1yy32M--26">
          <mxGeometry width="100" height="40" as="geometry" />
        </mxCell>
        <mxCell id="dkab3oiRA13Ja1yy32M--28" value="アカウントの&lt;br&gt;論理削除確認あり" style="text;html=1;strokeColor=none;fillColor=none;align=center;verticalAlign=middle;whiteSpace=wrap;rounded=0;fontSize=12;fontStyle=1" vertex="1" parent="dkab3oiRA13Ja1yy32M--26">
          <mxGeometry y="5" width="100" height="30" as="geometry" />
        </mxCell>
      </root>
    </mxGraphModel>
  </diagram>
</mxfile>
